<?xml version="1.0" encoding="UTF-8"?>
<!DOCTYPE svg PUBLIC "-//W3C//DTD SVG 1.1//EN" "http://www.w3.org/Graphics/SVG/1.1/DTD/svg11.dtd">
<!-- Creator: CorelDRAW 2018 (64 Bit) -->
<svg xmlns="http://www.w3.org/2000/svg" xml:space="preserve" width="969px" height="969px" version="1.1" style="shape-rendering:geometricPrecision; text-rendering:geometricPrecision; image-rendering:optimizeQuality; fill-rule:evenodd; clip-rule:evenodd"
viewBox="0 0 969 969"
 xmlns:xlink="http://www.w3.org/1999/xlink">
 <defs>
  <style type="text/css">
   <![CDATA[
    .str0 {stroke:#FF3131;stroke-width:59.09;stroke-miterlimit:22.9256}
    .fil0 {fill:#314457}
    .fil1 {fill:#FF3131}
   ]]>
  </style>
 </defs>
 <g id="Capa_x0020_1">
  <metadata id="CorelCorpID_0Corel-Layer"/>
  <path class="fil0 str0" d="M485.71 38.44c245.89,0 445.21,199.33 445.21,445.22 0,245.88 -199.32,445.21 -445.21,445.21 -245.89,0 -445.22,-199.33 -445.22,-445.21 0,-245.89 199.33,-445.22 445.22,-445.22z"/>
  <path class="fil1" d="M398.31 625.64l65.6 -171.77c23.45,-60.97 15.64,-60.22 40.18,0.29l69.97 172.44c2.82,7.86 3.19,7.49 -1.72,16.04l-71 116.31c-20.46,33.55 -13.92,34.05 -33.44,0.22l-68.09 -117.09c-5.39,-9.26 -5.3,-6.48 -1.5,-16.44z"/>
  <path class="fil1" d="M402.46 156.02l-222.58 558.72 86.92 0.13c29.54,0.05 25.29,3.97 38.09,-26.97l211.21 -525.62c9.2,-22.37 7.8,-23.71 -12.45,-23.84l-72.73 0.23c-17.34,0.05 -21.21,0.71 -28.46,17.35z"/>
  <path class="fil1" d="M494.64 279.31l37.97 -100.78c2.47,-6.25 8.6,-6.45 11.48,-0.67l244.1 524.37c5.49,11.78 7.68,10.66 -4.64,10.72l-83.7 0.18c-18.49,-0.5 -21.19,-0.21 -27.07,-12.21l-176.16 -375.95c-11.14,-20.84 -8.58,-23.71 -1.98,-45.66z"/>
  <path class="fil1" d="M117.8 595.62l36.4 80.06c15.01,33.03 10.28,32.33 24.17,-1.25l17.94 -43.36c9.6,-23.19 9.77,-16.8 -0.63,-39.62l-35.42 -77.74c-17.68,-38.79 -12.15,-39.61 -28.42,-0.26l-13.92 33.63c-11.74,28.41 -12.75,20.76 -0.12,48.54z"/>
 </g>
</svg>
